<svg width="462" height="462" viewBox="0 0 462 462" fill="none" xmlns="http://www.w3.org/2000/svg">
<path d="M300.596 427.747H257.888C257.766 427.747 257.648 427.699 257.562 427.612C257.475 427.525 257.426 427.408 257.426 427.285C257.426 427.163 257.475 427.045 257.562 426.959C257.648 426.872 257.766 426.823 257.888 426.823H300.596C300.656 426.823 300.716 426.835 300.772 426.858C300.828 426.882 300.879 426.916 300.922 426.959C300.965 427.001 300.999 427.052 301.022 427.108C301.046 427.164 301.058 427.225 301.058 427.285C301.058 427.346 301.046 427.406 301.022 427.462C300.999 427.518 300.965 427.569 300.922 427.612C300.879 427.655 300.828 427.689 300.772 427.712C300.716 427.735 300.656 427.747 300.596 427.747Z" fill="#404B7C"/>
<path d="M182.592 427.747H139.894C139.771 427.747 139.654 427.699 139.567 427.612C139.48 427.525 139.432 427.408 139.432 427.285C139.432 427.163 139.48 427.045 139.567 426.959C139.654 426.872 139.771 426.823 139.894 426.823H182.601C182.723 426.824 182.84 426.874 182.926 426.962C183.012 427.049 183.06 427.167 183.058 427.29C183.057 427.412 183.007 427.529 182.92 427.615C182.832 427.701 182.714 427.748 182.592 427.747Z" fill="#404B7C"/>
<path d="M273.744 430.584H207.124C207.001 430.584 206.884 430.535 206.797 430.449C206.711 430.362 206.662 430.245 206.662 430.122C206.662 430 206.711 429.882 206.797 429.795C206.884 429.709 207.001 429.66 207.124 429.66H273.744C273.867 429.66 273.984 429.709 274.071 429.795C274.158 429.882 274.206 430 274.206 430.122C274.206 430.245 274.158 430.362 274.071 430.449C273.984 430.535 273.867 430.584 273.744 430.584Z" fill="#404B7C"/>
<path d="M136.558 430.584H119.27C119.147 430.584 119.03 430.535 118.943 430.449C118.857 430.362 118.808 430.245 118.808 430.122C118.808 430 118.857 429.882 118.943 429.795C119.03 429.709 119.147 429.66 119.27 429.66H136.558C136.619 429.66 136.679 429.672 136.735 429.695C136.791 429.719 136.842 429.753 136.885 429.795C136.927 429.838 136.962 429.889 136.985 429.945C137.008 430.001 137.02 430.061 137.02 430.122C137.02 430.183 137.008 430.243 136.985 430.299C136.962 430.355 136.927 430.406 136.885 430.449C136.842 430.492 136.791 430.526 136.735 430.549C136.679 430.572 136.619 430.584 136.558 430.584Z" fill="#404B7C"/>
<path d="M148.099 247.207C148.099 247.207 163.733 265.105 201.072 262.527C238.41 259.949 248.824 239.427 248.824 239.427L239.796 197.616L163.788 207.29L148.099 247.207Z" fill="#9AB3DA"/>
<path d="M222.49 387.017L221.889 400.877C220.843 401.482 219.656 401.8 218.447 401.8C217.239 401.8 216.052 401.482 215.006 400.877L213.971 385.992L222.49 387.017Z" fill="#ECBDBB"/>
<path d="M209.85 413.028C209.58 417.482 209.956 421.951 210.968 426.297H213.98C213.98 426.297 215.357 418.184 216.909 414.571C218.461 410.958 211.309 409.822 209.85 413.028Z" fill="#0D1D54"/>
<path d="M213.971 398.808C213.971 398.808 217.242 400.443 222.915 398.808C222.915 398.808 232.21 414.469 235.389 417.288C238.568 420.106 245.553 423.22 247.946 424.513C250.339 425.807 231.943 426.749 227.618 425.973C223.294 425.197 219.7 419.782 216.087 416.853C214.204 415.247 212.085 413.941 209.803 412.982C209.803 412.982 210.792 404.998 213.971 398.808Z" fill="#F68D88"/>
<path d="M236.544 201.783C236.544 201.783 242.134 231.12 241.358 243.252C240.582 255.384 233.874 307.008 233.874 307.008L225.354 388.32C225.354 388.32 215.68 390.168 211.162 387.673C211.162 387.673 209.739 364.962 208.196 353.088C206.653 341.215 208.196 329.859 209.231 320.434C209.231 320.434 202.652 281.201 201.099 246.616C199.547 212.03 204.195 192.931 217.62 191.638C231.046 190.344 236.544 201.783 236.544 201.783Z" fill="#0D1D54"/>
<path d="M215.523 386.019C215.408 386.02 215.297 385.978 215.212 385.901C215.126 385.824 215.072 385.718 215.061 385.604C214.932 384.365 211.79 355.204 211.966 348.034C212.141 340.864 214.183 320.84 214.202 320.637L208.658 245.396C208.653 245.335 208.661 245.274 208.68 245.217C208.7 245.159 208.73 245.106 208.77 245.06C208.851 244.967 208.965 244.91 209.087 244.902C209.21 244.893 209.331 244.933 209.423 245.014C209.516 245.095 209.573 245.209 209.582 245.331L215.126 320.656C215.126 320.933 213.056 340.928 212.89 348.062C212.723 355.195 215.948 385.206 215.985 385.511C215.998 385.632 215.962 385.754 215.886 385.849C215.81 385.944 215.699 386.005 215.578 386.019H215.532H215.523Z" fill="#9AB3DA"/>
<path d="M164.232 387.017L162.624 401.94C161.578 402.544 160.39 402.862 159.182 402.862C157.974 402.862 156.787 402.544 155.74 401.94V385.982L164.232 387.017Z" fill="#ECBDBB"/>
<path d="M150.547 414.035C150.277 418.489 150.654 422.958 151.665 427.304H154.678C154.678 427.304 156.054 419.191 157.607 415.578C159.159 411.966 152.016 410.848 150.547 414.035Z" fill="#0D1D54"/>
<path d="M154.677 399.843C154.677 399.843 157.948 401.478 163.622 399.843C163.622 399.843 172.917 415.505 176.096 418.323C179.274 421.141 186.26 424.255 188.653 425.548C191.046 426.842 172.649 427.785 168.325 427.008C164.001 426.232 160.406 420.818 156.793 417.888C154.911 416.282 152.792 414.976 150.51 414.017C150.51 414.017 151.536 406.034 154.677 399.843Z" fill="#F68D88"/>
<path d="M207.845 217.962L205.59 248.334C205.59 248.334 185.585 306.491 181.455 319.141C177.325 331.79 168.168 386.417 168.168 386.417C168.168 386.417 165.396 388.949 159.39 388.949C153.384 388.949 151.998 386.075 151.998 386.075C151.998 386.075 150.704 344.948 151.998 334.331C153.292 323.714 157.422 307.748 157.681 300.263C157.939 292.779 157.422 251.744 159.233 234.659C161.044 217.574 169.037 191.351 187.498 191.453C205.96 191.555 208.741 205.895 207.845 217.962Z" fill="#0D1D54"/>
<path d="M156.507 384.809C156.446 384.808 156.387 384.795 156.331 384.771C156.275 384.746 156.225 384.711 156.183 384.667C156.141 384.624 156.108 384.572 156.086 384.516C156.064 384.459 156.053 384.399 156.054 384.338C156.054 384.089 156.405 359.233 156.914 346.297C157.302 336.355 159.196 323.779 160.443 315.463C160.841 312.82 161.182 310.538 161.367 308.921C162.153 302.832 163.77 290.164 163.77 280.277C163.77 270.566 167.687 219.672 167.724 219.155C167.728 219.093 167.744 219.033 167.771 218.979C167.798 218.924 167.836 218.875 167.883 218.835C167.93 218.795 167.984 218.766 168.042 218.747C168.101 218.729 168.162 218.723 168.223 218.729C168.284 218.734 168.343 218.751 168.398 218.778C168.452 218.806 168.5 218.844 168.54 218.891C168.579 218.937 168.609 218.991 168.628 219.049C168.646 219.107 168.653 219.168 168.648 219.228C168.648 219.737 164.694 270.603 164.694 280.277C164.694 290.256 163.067 302.961 162.282 309.069C162.07 310.695 161.728 312.987 161.358 315.639C160.111 323.955 158.226 336.484 157.838 346.371C157.329 359.307 156.978 384.135 156.978 384.384C156.969 384.502 156.915 384.611 156.827 384.69C156.74 384.77 156.625 384.812 156.507 384.809Z" fill="#9AB3DA"/>
<path d="M205.59 248.796C205.496 248.795 205.404 248.766 205.328 248.711C205.251 248.657 205.193 248.58 205.16 248.492C205.128 248.404 205.124 248.308 205.148 248.217C205.172 248.126 205.223 248.044 205.294 247.983L208.842 245.017C209.588 244.392 210.198 243.621 210.635 242.752C211.072 241.883 211.326 240.934 211.383 239.963L212.751 215.625C212.758 215.502 212.814 215.387 212.906 215.306C212.998 215.225 213.118 215.183 213.241 215.19C213.363 215.198 213.478 215.253 213.559 215.345C213.641 215.437 213.682 215.557 213.675 215.68L212.307 240.018C212.245 241.116 211.959 242.19 211.466 243.174C210.974 244.158 210.285 245.03 209.443 245.738L205.895 248.704C205.807 248.77 205.699 248.802 205.59 248.796Z" fill="#9AB3DA"/>
<path d="M205.59 248.796C205.469 248.787 205.357 248.73 205.277 248.639C205.198 248.547 205.157 248.428 205.165 248.307L207.42 216.327C207.423 216.267 207.439 216.208 207.465 216.153C207.492 216.099 207.529 216.051 207.575 216.011C207.62 215.972 207.674 215.942 207.731 215.923C207.788 215.904 207.849 215.897 207.909 215.902C208.03 215.911 208.143 215.968 208.222 216.06C208.302 216.151 208.342 216.271 208.334 216.392L206.052 248.362C206.045 248.48 205.993 248.59 205.907 248.671C205.821 248.752 205.708 248.797 205.59 248.796Z" fill="#9AB3DA"/>
<path d="M227.526 107.11C227.526 107.11 236.174 115.758 246.154 153.781L245.119 174.691C245.119 174.691 238.106 177.833 233.975 176.281C229.845 174.728 226.103 164.407 223.007 144.144C221.241 131.616 222.8 118.845 227.526 107.11Z" fill="#F68D88"/>
<path d="M243.465 152.922C241.201 155.621 239.603 158.814 238.801 162.244C237.998 165.674 238.013 169.245 238.845 172.668C240.942 181.372 246.893 182.73 246.893 182.73L253.435 179.201C253.435 179.201 256.835 170.727 256.142 162.467C255.449 154.206 251.827 149.688 251.827 149.688L243.465 152.922Z" fill="#404B7C"/>
<path d="M307.803 138.6C308.819 136.955 308.597 135.828 307.452 136.253C306.934 136.429 305.807 136.946 304.513 137.584C305.437 135.865 304.671 134.516 303.192 135.181C302.584 135.488 301.995 135.83 301.427 136.207C301.557 134.904 300.707 134.183 299.579 134.895C297.726 136.315 295.956 137.839 294.276 139.459L291.836 139.09C292.665 137.754 293.4 136.361 294.035 134.922C294.294 133.934 293.693 133.074 293.047 133.37C292.585 133.62 287.558 138.212 284.731 140.845C282.291 141.982 279.963 143.174 279.963 143.174L250.755 153.476C250.755 153.476 247.142 163.64 250.238 172.659C250.238 172.659 282.929 148.57 285.165 147.535C287.401 146.5 300.734 145.816 302.462 145.299C304.19 144.782 309.522 139.616 309.854 138.415C310.002 137.925 309.05 138.138 307.803 138.6Z" fill="#ECBDBB"/>
<path d="M302.407 141.446H302.324L294.183 139.893C294.061 139.87 293.952 139.799 293.882 139.696C293.812 139.593 293.786 139.466 293.809 139.344C293.832 139.221 293.903 139.113 294.006 139.043C294.11 138.972 294.236 138.946 294.359 138.969L302.361 140.494L307.627 138.147C307.683 138.118 307.744 138.1 307.807 138.095C307.87 138.09 307.933 138.098 307.993 138.119C308.053 138.139 308.108 138.172 308.154 138.214C308.201 138.257 308.238 138.308 308.264 138.366C308.29 138.423 308.304 138.486 308.305 138.549C308.306 138.612 308.294 138.674 308.27 138.733C308.245 138.791 308.21 138.844 308.164 138.888C308.119 138.931 308.065 138.966 308.006 138.988L302.61 141.39C302.548 141.424 302.478 141.443 302.407 141.446Z" fill="#404B7C"/>
<path d="M301.603 140.041C301.504 140.042 301.408 140.011 301.328 139.953C301.248 139.895 301.189 139.814 301.159 139.72C301.129 139.626 301.13 139.525 301.162 139.431C301.193 139.338 301.254 139.257 301.335 139.2L304.255 137.177C304.355 137.114 304.476 137.093 304.592 137.117C304.708 137.141 304.81 137.209 304.878 137.306C304.945 137.403 304.973 137.522 304.955 137.639C304.937 137.756 304.875 137.862 304.781 137.935L301.861 139.958C301.786 140.011 301.695 140.04 301.603 140.041Z" fill="#404B7C"/>
<path d="M298.526 139.034C298.43 139.036 298.335 139.007 298.256 138.952C298.177 138.897 298.117 138.819 298.085 138.729C298.052 138.638 298.049 138.54 298.075 138.447C298.101 138.354 298.155 138.272 298.23 138.212L301.132 135.828C301.226 135.75 301.348 135.712 301.47 135.723C301.53 135.729 301.589 135.746 301.643 135.774C301.697 135.803 301.744 135.841 301.783 135.888C301.822 135.935 301.851 135.989 301.869 136.047C301.887 136.105 301.894 136.166 301.888 136.226C301.882 136.287 301.865 136.346 301.837 136.399C301.808 136.453 301.77 136.501 301.723 136.54L298.822 138.933C298.738 139 298.633 139.036 298.526 139.034Z" fill="#404B7C"/>
<path d="M201.072 96.521L182.231 112.913C182.231 112.913 162.873 208.667 163.64 208.667C164.407 208.667 189.623 216.669 212.511 212.28C235.398 207.891 239.529 201.959 239.529 201.959L228.44 140.051L225.992 109.559L201.072 96.521Z" fill="#9AB3DA"/>
<path d="M197.736 214.045C186.638 213.905 175.603 212.352 164.897 209.425C164.287 209.268 163.761 209.129 163.65 209.12C163.589 209.12 163.53 209.108 163.474 209.085C163.419 209.061 163.368 209.027 163.326 208.984C163.284 208.941 163.251 208.89 163.229 208.834C163.206 208.778 163.196 208.718 163.197 208.658C163.199 208.534 163.25 208.417 163.338 208.331C163.426 208.244 163.545 208.196 163.668 208.196C164.16 208.269 164.646 208.384 165.119 208.538C187.72 214.414 203.335 213.574 212.446 211.818C234.89 207.512 239.131 201.746 239.168 201.654C239.201 201.601 239.245 201.555 239.296 201.519C239.348 201.483 239.406 201.458 239.467 201.445C239.529 201.432 239.592 201.432 239.653 201.445C239.715 201.457 239.773 201.482 239.824 201.518C239.876 201.554 239.92 201.6 239.953 201.653C239.986 201.706 240.008 201.766 240.017 201.828C240.027 201.89 240.024 201.953 240.008 202.014C239.992 202.074 239.964 202.131 239.926 202.181C239.75 202.43 235.426 208.325 212.622 212.696C207.713 213.614 202.729 214.065 197.736 214.045Z" fill="#404B7C"/>
<path d="M189.115 207.799C180.661 207.799 174.839 207.253 174.692 207.235C174.631 207.229 174.572 207.211 174.518 207.182C174.465 207.153 174.417 207.114 174.378 207.067C174.34 207.02 174.311 206.965 174.293 206.907C174.276 206.849 174.27 206.787 174.276 206.727C174.282 206.666 174.3 206.607 174.329 206.553C174.357 206.5 174.397 206.452 174.444 206.414C174.491 206.375 174.545 206.346 174.604 206.328C174.662 206.311 174.723 206.305 174.784 206.311C175.154 206.311 211.929 209.785 235.463 199.122C235.573 199.081 235.695 199.082 235.803 199.127C235.912 199.173 235.999 199.257 236.048 199.365C236.096 199.472 236.102 199.593 236.063 199.705C236.025 199.816 235.946 199.908 235.842 199.963C221.437 206.505 202.153 207.799 189.115 207.799Z" fill="#404B7C"/>
<path d="M201.072 172.021C198.835 211.079 184.033 243.261 184.033 243.261C169.406 251.522 148.099 247.216 148.099 247.216C148.099 247.216 162.014 191.129 165.451 168.408C168.889 145.687 171.522 112.146 171.522 112.146C171.522 112.146 185.779 99.6441 195.925 95.8003C195.463 100.624 193.744 120.582 195.472 134.858C197.459 151.194 201.072 172.021 201.072 172.021Z" fill="#F68D88"/>
<path d="M205.59 95.8003C213.273 98.8032 220.624 102.593 227.526 107.11V113.43C227.526 113.43 232.95 131.494 233.208 134.682C233.467 137.87 230.76 149.134 230.76 149.134C230.76 149.134 247.022 211.966 248.824 239.344C242.172 238.897 235.568 237.905 229.078 236.378C229.078 236.378 229.078 212.936 228.265 195.555C227.859 185.78 226.651 176.054 224.652 166.477C224.652 166.477 214.839 125.562 212.52 116.96C210.201 108.357 205.59 95.8003 205.59 95.8003Z" fill="#F68D88"/>
<path d="M236.35 172.409C236.261 172.41 236.173 172.38 236.103 172.324C236.033 172.269 235.983 172.192 235.962 172.104C232.876 158.974 230.418 149.374 230.372 149.272C230.356 149.209 230.356 149.142 230.372 149.078C230.372 148.967 233.061 137.879 232.811 134.747C232.562 131.615 227.202 113.717 227.147 113.495C227.142 113.458 227.142 113.421 227.147 113.384V108.931C227.147 108.825 227.189 108.724 227.263 108.65C227.338 108.575 227.439 108.533 227.544 108.533C227.65 108.533 227.751 108.575 227.825 108.65C227.9 108.724 227.942 108.825 227.942 108.931V113.32C228.33 114.622 233.366 131.467 233.615 134.636C233.865 137.806 231.462 147.942 231.176 149.115C231.444 150.15 233.828 159.436 236.72 171.864C236.732 171.915 236.734 171.968 236.726 172.02C236.718 172.072 236.699 172.121 236.672 172.166C236.644 172.211 236.608 172.249 236.566 172.28C236.523 172.311 236.475 172.333 236.424 172.345H236.332L236.35 172.409Z" fill="#ECBDBB"/>
<path d="M199.177 92.3997C193.975 93.2129 189.457 104.791 187.517 115.029L193.347 120.36L187.517 130.681C187.517 130.681 196.248 152.534 201.062 171.975C201.062 171.975 198.826 140.318 197.274 122.846C197.579 104.911 205.83 104.255 212.502 121.127C218.97 139.801 224.634 166.468 224.634 166.468C224.634 166.468 225.317 139.801 223.95 125.433L215.347 118.808L217.925 112.099C217.925 112.099 209.074 90.8844 199.177 92.3997Z" fill="#F68D88"/>
<path d="M224.643 166.911C224.591 166.91 224.539 166.899 224.492 166.878C224.444 166.856 224.401 166.826 224.365 166.788C224.329 166.751 224.3 166.706 224.281 166.657C224.263 166.609 224.254 166.557 224.255 166.505C224.255 166.237 224.92 139.903 223.58 125.682L215.107 119.196C215.04 119.144 214.991 119.072 214.968 118.991C214.945 118.909 214.948 118.823 214.978 118.743L217.5 112.183C215.528 107.689 213.048 103.435 210.108 99.5055C210.043 99.4222 210.014 99.3164 210.027 99.2116C210.04 99.1068 210.094 99.0114 210.178 98.9465C210.261 98.8815 210.367 98.8523 210.471 98.8653C210.576 98.8783 210.672 98.9324 210.737 99.0158C213.731 103.047 216.252 107.409 218.249 112.016C218.287 112.111 218.287 112.217 218.249 112.312L215.772 118.78L224.144 125.248C224.188 125.281 224.224 125.323 224.251 125.37C224.278 125.418 224.295 125.471 224.301 125.525C225.668 139.755 224.994 166.348 224.994 166.616C224.973 166.695 224.928 166.766 224.865 166.819C224.803 166.872 224.725 166.904 224.643 166.911Z" fill="#ECBDBB"/>
<path d="M199.085 164.989C198.999 164.989 198.916 164.961 198.848 164.909C198.78 164.857 198.73 164.785 198.706 164.703C193.874 147.738 187.221 131.042 187.156 130.875C187.131 130.822 187.118 130.763 187.118 130.704C187.118 130.645 187.131 130.587 187.156 130.533L192.83 120.48L187.23 115.361C187.18 115.315 187.143 115.257 187.122 115.192C187.101 115.127 187.097 115.058 187.11 114.992C188.121 109.168 189.989 103.525 192.654 98.2488C192.675 98.1971 192.707 98.1505 192.748 98.112C192.788 98.0734 192.836 98.0439 192.889 98.0252C192.942 98.0066 192.998 97.9992 193.053 98.0037C193.109 98.0082 193.163 98.0243 193.212 98.0511C193.261 98.0779 193.304 98.1148 193.338 98.1593C193.372 98.2037 193.396 98.2548 193.408 98.3092C193.421 98.3636 193.422 98.4201 193.412 98.475C193.401 98.5299 193.379 98.5819 193.347 98.6276C190.751 103.766 188.924 109.258 187.923 114.927L193.587 120.111C193.653 120.172 193.696 120.254 193.71 120.343C193.723 120.432 193.706 120.522 193.661 120.6L187.923 130.764C188.653 132.612 194.853 148.431 199.427 164.49C199.456 164.591 199.444 164.699 199.393 164.79C199.343 164.882 199.259 164.95 199.159 164.98L199.085 164.989Z" fill="#ECBDBB"/>
<path d="M171.522 112.137C165.655 116.868 161.404 132.622 171.522 144.92C180.568 155.916 204.685 177.824 209.97 178.859C215.255 179.894 220.55 173.176 220.55 173.176C220.55 173.176 221.067 158.226 219.385 155.057C218.971 154.17 218.36 153.389 217.6 152.773C216.84 152.157 215.949 151.721 214.996 151.499L211.513 153.56C211.513 153.56 196.424 131.384 188.542 123.493C183.639 118.664 177.863 114.811 171.522 112.137Z" fill="#F68D88"/>
<path d="M211.116 179.367C210.706 179.366 210.298 179.326 209.896 179.247C204.407 178.175 180.633 156.359 171.744 145.807C171.708 145.768 171.68 145.721 171.662 145.67C171.645 145.62 171.637 145.566 171.641 145.512C171.645 145.459 171.659 145.407 171.684 145.359C171.708 145.311 171.742 145.269 171.783 145.234C171.824 145.2 171.872 145.174 171.924 145.159C171.975 145.143 172.029 145.139 172.082 145.145C172.136 145.151 172.187 145.168 172.234 145.194C172.281 145.221 172.321 145.256 172.354 145.299C182.019 156.766 205.017 177.491 210.053 178.471C214.673 179.395 219.487 173.851 220.171 173.038C220.171 171.55 220.577 158.143 219.053 155.251C218.671 154.443 218.119 153.728 217.434 153.154C216.75 152.58 215.95 152.16 215.089 151.924L211.735 153.911C211.648 153.961 211.545 153.976 211.448 153.954C211.35 153.932 211.265 153.873 211.208 153.791C211.06 153.569 196.045 131.532 188.293 123.779C184.676 120.226 180.58 117.197 176.124 114.779C176.044 114.723 175.987 114.64 175.965 114.544C175.942 114.449 175.956 114.349 176.003 114.263C176.05 114.178 176.127 114.112 176.219 114.079C176.311 114.047 176.412 114.049 176.503 114.086C181.024 116.542 185.179 119.618 188.847 123.225C196.156 130.524 209.794 150.326 211.652 153.042L214.812 151.194C214.889 151.147 214.98 151.127 215.07 151.139C216.087 151.369 217.037 151.829 217.849 152.482C218.661 153.135 219.313 153.965 219.755 154.909C221.464 158.143 220.984 172.613 220.965 173.232C220.963 173.316 220.934 173.396 220.882 173.463C220.661 173.712 216.124 179.367 211.116 179.367Z" fill="#ECBDBB"/>
<path d="M211.808 151.869L219.958 146.731C219.958 146.731 225.133 148.727 226.75 156.47C228.367 164.214 225.826 172.862 225.826 172.862C225.826 172.862 218.203 178.803 218.203 178.609C214.358 175.91 211.479 172.05 209.988 167.595C207.115 159.529 211.808 151.869 211.808 151.869Z" fill="#404B7C"/>
<path d="M220.032 150.501L254.22 132.437C254.22 132.437 262.591 125.571 266.232 123.576C269.873 121.58 271.397 121.894 271.268 122.864C271.138 123.834 267.396 126.412 266.814 128.353C266.232 130.293 269.863 129.646 271.277 129.388C272.691 129.129 280.11 126.616 282.494 125.645C284.878 124.675 284.943 126.68 284.342 127.706C283.742 128.732 280.6 130.219 280.6 130.219C280.149 131.482 279.43 132.632 278.493 133.592C278.099 134.825 277.276 135.877 276.174 136.558C275.449 137.683 274.565 138.697 273.55 139.57C272.256 140.494 257.519 140.494 255.615 140.771C253.712 141.048 230.399 163.659 224.726 168.99C224.726 168.999 216.087 163.326 220.032 150.501Z" fill="#ECBDBB"/>
<path d="M272.866 133.85C272.744 133.874 272.617 133.847 272.514 133.777C272.411 133.707 272.34 133.599 272.317 133.476C272.293 133.354 272.32 133.227 272.39 133.124C272.46 133.021 272.568 132.95 272.691 132.926C274.539 132.196 278.66 130.432 278.66 130.432L279.02 131.282C279.02 131.282 274.844 133.047 273.033 133.777C272.983 133.812 272.926 133.837 272.866 133.85Z" fill="#404B7C"/>
<path d="M272.58 136.521C272.457 136.539 272.333 136.508 272.233 136.434C272.133 136.361 272.067 136.251 272.049 136.128C272.03 136.006 272.061 135.881 272.135 135.781C272.209 135.681 272.319 135.615 272.441 135.597C274.015 135.069 275.558 134.452 277.061 133.749C277.17 133.706 277.291 133.706 277.4 133.749C277.508 133.792 277.597 133.874 277.647 133.98C277.697 134.085 277.706 134.206 277.671 134.317C277.636 134.429 277.56 134.523 277.459 134.58C275.929 135.308 274.359 135.946 272.756 136.493L272.58 136.521Z" fill="#404B7C"/>
<path d="M271.019 138.794C270.958 138.801 270.896 138.795 270.838 138.778C270.779 138.761 270.725 138.733 270.677 138.695C270.581 138.618 270.519 138.505 270.506 138.383C270.492 138.26 270.528 138.137 270.605 138.041C270.682 137.945 270.794 137.884 270.917 137.87C272.224 137.507 273.505 137.057 274.752 136.521C274.808 136.495 274.869 136.48 274.931 136.477C274.993 136.475 275.055 136.485 275.113 136.508C275.171 136.53 275.224 136.563 275.269 136.607C275.314 136.65 275.349 136.701 275.373 136.759C275.398 136.816 275.41 136.878 275.41 136.94C275.41 137.002 275.397 137.063 275.373 137.121C275.349 137.178 275.313 137.229 275.268 137.272C275.223 137.316 275.17 137.349 275.112 137.371C273.816 137.932 272.482 138.401 271.12 138.776H271.019V138.794Z" fill="#0D1D54"/>
<path d="M188.94 61.908C188.94 61.908 185.197 54.71 179.256 53.2224C173.315 51.7347 169.388 57.8424 168.612 65.2898C167.835 72.7372 173.37 79.0019 181.548 71.9333C188.034 66.3893 188.94 61.908 188.94 61.908Z" fill="#0D1D54"/>
<path d="M187.387 62.0002C187.387 62.0002 177.907 67.1653 178.942 75.7678C179.977 84.3702 195.075 91.1246 203.206 86.2182C211.337 81.3118 209.332 74.2801 209.332 74.2801C209.332 74.2801 216.493 73.6333 216.622 66.731C216.752 59.8288 213.204 58.5998 209.526 59.339C209.526 59.339 210.884 50.7551 202.947 49.9789C195.01 49.2028 189.004 53.4809 187.387 62.0002Z" fill="#0D1D54"/>
<path d="M179.081 72.7926H178.988C178.929 72.7805 178.872 72.7568 178.822 72.7228C178.772 72.6888 178.728 72.6453 178.695 72.5947C178.662 72.5441 178.638 72.4873 178.627 72.4278C178.615 72.3682 178.616 72.3069 178.628 72.2474C179.986 65.6039 186.879 61.7693 187.166 61.6122C187.273 61.5534 187.4 61.5398 187.518 61.5745C187.636 61.6091 187.735 61.6892 187.794 61.797C187.853 61.9048 187.866 62.0316 187.832 62.1494C187.797 62.2673 187.717 62.3665 187.609 62.4253C187.544 62.4253 180.808 66.2137 179.533 72.4415C179.508 72.5424 179.45 72.632 179.368 72.6957C179.286 72.7594 179.184 72.7936 179.081 72.7926Z" fill="#9AB3DA"/>
<path d="M212.52 121.173C211.759 123.979 209.98 126.4 207.53 127.965C201.986 127.54 197.292 122.892 197.292 122.892V104.736C197.228 99.7921 196.082 87.891 195.648 83.5482L195.481 81.9404L204.001 83.7884C204.001 83.7884 204.186 87.8078 204.537 92.2708C204.879 96.5212 205.396 101.197 206.061 103.211C207.438 107.313 212.52 121.173 212.52 121.173Z" fill="#ECBDBB"/>
<path d="M204.527 92.243C199.621 90.7277 196.997 86.7637 195.638 83.5482L195.472 81.9404L203.991 83.7884C203.991 83.7884 204.204 87.7801 204.527 92.243Z" fill="#404B7C"/>
<path d="M207.78 66.3246C210.183 70.5425 211.533 75.278 211.716 80.1291C211.91 87.9369 205.719 88.7778 199.455 86.1259C193.19 83.474 189.291 74.5112 189.291 74.5112C189.291 74.5112 186.454 66.7681 191.675 63.2199C192.923 62.3274 194.339 61.6983 195.838 61.3707C197.337 61.0431 198.887 61.0239 200.394 61.3143C201.9 61.6048 203.332 62.1987 204.602 63.0601C205.872 63.9214 206.953 65.0321 207.78 66.3246Z" fill="#ECBDBB"/>
<path d="M192.488 65.6779C192.488 65.6779 200.804 72.2568 211.134 67.9325C211.134 67.9325 203.52 53.6105 191.388 60.5405C179.256 67.4705 185.068 77.3203 191.647 78.8634C191.647 78.9096 195.26 74.65 192.488 65.6779Z" fill="#0D1D54"/>
<path d="M195.888 82.2359L192.83 77.8469C192.83 77.8469 189.605 74.9178 186.546 76.812C183.488 78.7062 186.75 87.2347 195.888 82.2359Z" fill="#ECBDBB"/>
<path d="M193.911 81.0438C193.806 81.0432 193.706 81.0074 193.624 80.9422C191.884 79.6387 189.743 78.985 187.572 79.0942C187.511 79.1002 187.45 79.0943 187.392 79.0767C187.333 79.0591 187.279 79.0301 187.232 78.9915C187.185 78.9529 187.145 78.9054 187.117 78.8516C187.088 78.7979 187.07 78.739 187.064 78.6784C187.058 78.6177 187.064 78.5564 187.081 78.4981C187.099 78.4397 187.128 78.3853 187.166 78.3382C187.205 78.291 187.253 78.2518 187.306 78.223C187.36 78.1942 187.419 78.1762 187.48 78.1702C189.885 78.0181 192.265 78.7255 194.197 80.166C194.309 80.2073 194.401 80.2905 194.453 80.3981C194.505 80.5056 194.514 80.6292 194.477 80.7429C194.44 80.8565 194.36 80.9513 194.254 81.0075C194.149 81.0636 194.026 81.0766 193.911 81.0438Z" fill="#404B7C"/>
<path d="M190.196 82.2915C190.091 82.292 189.989 82.2565 189.906 82.191C189.824 82.1255 189.766 82.0338 189.743 81.9311C189.542 80.9018 189.517 79.8457 189.669 78.808C189.678 78.7474 189.699 78.6891 189.731 78.6365C189.763 78.5839 189.804 78.5381 189.854 78.5016C189.903 78.4652 189.959 78.4388 190.019 78.424C190.078 78.4092 190.14 78.4062 190.201 78.4153C190.261 78.4244 190.32 78.4454 190.372 78.477C190.425 78.5086 190.471 78.5503 190.507 78.5996C190.544 78.649 190.57 78.705 190.585 78.7646C190.6 78.8241 190.602 78.886 190.593 78.9466C190.457 79.8673 190.476 80.8041 190.649 81.7186C190.662 81.7781 190.664 81.8397 190.654 81.8998C190.644 81.9599 190.621 82.0174 190.589 82.069C190.556 82.1205 190.514 82.1651 190.464 82.2001C190.414 82.2351 190.357 82.2599 190.298 82.273H190.196V82.2915Z" fill="#404B7C"/>
<path d="M192.959 90.9218C191.286 90.9218 189.984 88.852 189.984 86.2002C189.976 85.305 190.142 84.4169 190.473 83.5852C190.492 83.5236 190.524 83.4666 190.566 83.4179C190.608 83.3691 190.66 83.3297 190.718 83.3022C190.776 83.2746 190.839 83.2596 190.904 83.258C190.968 83.2564 191.032 83.2682 191.092 83.2928C191.151 83.3174 191.205 83.3542 191.249 83.4008C191.294 83.4473 191.328 83.5027 191.35 83.5633C191.372 83.6239 191.381 83.6884 191.376 83.7526C191.372 83.8169 191.354 83.8795 191.323 83.9364C191.04 84.657 190.899 85.4258 190.908 86.2002C190.908 88.2607 191.832 89.9978 192.959 89.9978C194.086 89.9978 195.01 88.2607 195.01 86.2002C195.01 84.1396 194.086 82.4025 192.959 82.4025C192.836 82.4025 192.719 82.3538 192.632 82.2672C192.546 82.1806 192.497 82.063 192.497 81.9405C192.497 81.818 192.546 81.7005 192.632 81.6138C192.719 81.5272 192.836 81.4785 192.959 81.4785C194.631 81.4785 195.934 83.5483 195.934 86.2002C195.934 88.852 194.631 90.9218 192.959 90.9218Z" fill="#F68D88"/>
<path d="M195.435 73.0882C195.435 73.0882 195.925 69.651 198.549 70.039C198.495 69.8597 198.508 69.6667 198.587 69.4964C198.665 69.3262 198.803 69.1905 198.974 69.115C199.556 68.9118 200.222 70.7228 200.222 70.7228C198.483 71.1817 196.856 71.9862 195.435 73.0882Z" fill="#404B7C"/>
<path d="M208.538 70.3536C208.538 70.3536 207.364 67.3968 205.904 68.8013C205.858 68.6687 205.773 68.5525 205.662 68.4671C205.55 68.3818 205.416 68.3309 205.276 68.3208C204.583 68.4224 205.017 70.1688 205.017 70.1688C206.18 69.8518 207.414 69.9165 208.538 70.3536Z" fill="#404B7C"/>
<path d="M200.221 77.0907C200.911 76.8879 201.267 76.0289 201.015 75.172C200.763 74.3152 200 73.785 199.309 73.9878C198.619 74.1906 198.263 75.0496 198.515 75.9064C198.767 76.7633 199.53 77.2935 200.221 77.0907Z" fill="#404B7C"/>
<path d="M199.978 75.2511C200.164 75.1964 200.271 75.0013 200.216 74.8152C200.161 74.6292 199.966 74.5227 199.78 74.5773C199.594 74.632 199.488 74.8271 199.542 75.0132C199.597 75.1992 199.792 75.3057 199.978 75.2511Z" fill="white"/>
<path d="M207.601 74.9247C208.291 74.7219 208.647 73.8629 208.395 73.006C208.143 72.1492 207.38 71.619 206.689 71.8218C205.999 72.0246 205.643 72.8836 205.895 73.7404C206.147 74.5973 206.91 75.1275 207.601 74.9247Z" fill="#404B7C"/>
<path d="M207.358 73.0826C207.544 73.028 207.65 72.8328 207.596 72.6468C207.541 72.4607 207.346 72.3542 207.16 72.4089C206.974 72.4635 206.867 72.6586 206.922 72.8447C206.977 73.0308 207.172 73.1373 207.358 73.0826Z" fill="white"/>
<path d="M204.823 79.6766C204.701 79.6766 204.583 79.6279 204.497 79.5413C204.41 79.4546 204.361 79.3371 204.361 79.2146C204.361 79.0921 204.41 78.9745 204.497 78.8879C204.583 78.8013 204.701 78.7526 204.823 78.7526C204.879 78.7526 206.237 78.6787 206.311 77.7454C206.326 77.6977 206.328 77.6467 206.317 77.5979C206.305 77.5491 206.281 77.5043 206.246 77.4682C205.794 77.3105 205.303 77.3105 204.851 77.4682C204.735 77.4998 204.61 77.4846 204.505 77.4259C204.4 77.3672 204.322 77.2696 204.287 77.1541L203.363 74.1326C203.346 74.0719 203.34 74.0084 203.347 73.9456C203.354 73.8828 203.373 73.822 203.404 73.7667C203.434 73.7113 203.475 73.6625 203.525 73.6231C203.574 73.5836 203.631 73.5542 203.691 73.5366C203.752 73.519 203.816 73.5135 203.878 73.5205C203.941 73.5275 204.002 73.5467 204.057 73.5772C204.113 73.6076 204.161 73.6487 204.201 73.698C204.24 73.7474 204.27 73.804 204.287 73.8646L205.073 76.4795C205.375 76.4029 205.689 76.388 205.997 76.4356C206.305 76.4833 206.6 76.5925 206.865 76.7567C207.017 76.8867 207.134 77.0534 207.203 77.241C207.273 77.4286 207.293 77.6309 207.263 77.8286C207.142 79.2146 205.655 79.6766 204.888 79.6766H204.823Z" fill="#404B7C"/>
<path d="M203.973 83.4651C202.729 83.4484 201.512 83.1042 200.443 82.4672C200.387 82.4394 200.337 82.4004 200.296 82.3527C200.255 82.3049 200.225 82.2493 200.206 82.1893C200.188 82.1293 200.181 82.0661 200.188 82.0037C200.195 81.9412 200.214 81.8808 200.245 81.8261C200.276 81.7714 200.317 81.7235 200.367 81.6854C200.417 81.6474 200.475 81.6199 200.535 81.6046C200.596 81.5894 200.66 81.5867 200.722 81.5968C200.784 81.6069 200.843 81.6295 200.896 81.6633C204.111 83.5113 206.44 81.8851 206.44 81.8666C206.489 81.8249 206.545 81.7938 206.607 81.7753C206.668 81.7568 206.732 81.7512 206.796 81.7589C206.86 81.7666 206.921 81.7874 206.976 81.8201C207.031 81.8527 207.079 81.8965 207.116 81.9485C207.153 82.0006 207.179 82.0599 207.193 82.1225C207.206 82.1852 207.206 82.2499 207.193 82.3126C207.179 82.3753 207.153 82.4345 207.116 82.4866C207.079 82.5386 207.031 82.5824 206.976 82.615C206.08 83.1865 205.036 83.4821 203.973 83.4651Z" fill="#404B7C"/>
<path d="M146.805 109.559C158.032 109.559 167.133 100.458 167.133 89.2308C167.133 78.004 158.032 68.9028 146.805 68.9028C135.578 68.9028 126.477 78.004 126.477 89.2308C126.477 100.458 135.578 109.559 146.805 109.559Z" fill="#9AB3DA"/>
<path d="M147.803 81.5152C149.834 81.5152 151.481 79.8687 151.481 77.8377C151.481 75.8066 149.834 74.1602 147.803 74.1602C145.772 74.1602 144.125 75.8066 144.125 77.8377C144.125 79.8687 145.772 81.5152 147.803 81.5152Z" fill="#F8F8F8"/>
<path d="M140.309 91.5501C140.249 91.5706 140.184 91.573 140.123 91.557C140.062 91.5409 140.006 91.5072 139.964 91.4599C139.921 91.4126 139.894 91.3539 139.885 91.291C139.876 91.2282 139.885 91.1641 139.912 91.1066C141.002 88.6487 147.101 83.3819 151.444 83.5575C153.393 83.6407 148.736 96.5489 148.764 98.3415C148.764 99.6721 151.739 98.5078 153.292 97.7963C153.358 97.7727 153.429 97.7705 153.497 97.7901C153.564 97.8096 153.623 97.85 153.666 97.9053C153.709 97.9606 153.734 98.0281 153.736 98.0981C153.739 98.1682 153.719 98.2372 153.68 98.2953C152.525 100.143 148.699 104.024 144.874 104.283C139.746 104.634 144.338 90.1641 144.338 90.1641L140.309 91.5501Z" fill="#F8F8F8"/>
<path d="M316.988 155.417C316.246 155.417 315.52 155.197 314.903 154.785C314.286 154.372 313.806 153.787 313.522 153.101C313.238 152.416 313.163 151.661 313.308 150.934C313.453 150.206 313.81 149.537 314.335 149.013C314.86 148.488 315.528 148.131 316.256 147.986C316.983 147.841 317.738 147.916 318.423 148.2C319.109 148.484 319.695 148.964 320.107 149.581C320.519 150.198 320.739 150.924 320.739 151.666C320.737 152.66 320.341 153.612 319.638 154.315C318.935 155.018 317.982 155.415 316.988 155.417ZM316.988 148.838C316.428 148.838 315.882 149.004 315.417 149.315C314.952 149.625 314.589 150.067 314.375 150.583C314.161 151.1 314.105 151.669 314.214 152.217C314.324 152.766 314.593 153.269 314.988 153.665C315.384 154.06 315.887 154.33 316.436 154.439C316.984 154.548 317.553 154.492 318.07 154.278C318.586 154.064 319.028 153.701 319.338 153.236C319.649 152.771 319.815 152.225 319.815 151.666C319.816 151.293 319.744 150.925 319.602 150.581C319.461 150.237 319.253 149.924 318.99 149.66C318.727 149.397 318.415 149.188 318.072 149.045C317.728 148.902 317.36 148.829 316.988 148.829V148.838Z" fill="#9AB3DA"/>
<path d="M295.264 53.3608C294.522 53.3608 293.797 53.1408 293.18 52.7286C292.563 52.3163 292.082 51.7305 291.798 51.045C291.514 50.3595 291.44 49.6052 291.585 48.8775C291.73 48.1498 292.087 47.4813 292.611 46.9567C293.136 46.432 293.805 46.0747 294.532 45.93C295.26 45.7852 296.014 45.8595 296.7 46.1435C297.385 46.4274 297.971 46.9082 298.383 47.5252C298.796 48.1421 299.016 48.8674 299.016 49.6094C299.013 50.6035 298.617 51.5563 297.914 52.2593C297.211 52.9623 296.258 53.3584 295.264 53.3608ZM295.264 46.7819C294.705 46.7819 294.158 46.9477 293.693 47.2584C293.228 47.5691 292.866 48.0107 292.652 48.5273C292.438 49.044 292.382 49.6125 292.491 50.161C292.6 50.7094 292.869 51.2132 293.265 51.6087C293.66 52.0041 294.164 52.2734 294.713 52.3825C295.261 52.4916 295.83 52.4356 296.346 52.2216C296.863 52.0076 297.304 51.6452 297.615 51.1802C297.926 50.7152 298.092 50.1686 298.092 49.6094C298.093 49.2373 298.021 48.8686 297.879 48.5245C297.737 48.1804 297.529 47.8676 297.267 47.6041C297.004 47.3405 296.692 47.1314 296.348 46.9888C296.005 46.8461 295.636 46.7727 295.264 46.7727V46.7819Z" fill="#9AB3DA"/>
<path d="M347.332 99.4685C346.776 99.4594 346.236 99.2864 345.779 98.9713C345.321 98.6561 344.967 98.2129 344.761 97.6972C344.555 97.1815 344.506 96.6164 344.619 96.0728C344.733 95.5292 345.005 95.0313 345.401 94.6418C345.797 94.2523 346.299 93.9884 346.845 93.8834C347.39 93.7783 347.954 93.8368 348.467 94.0514C348.979 94.266 349.416 94.6271 349.724 95.0895C350.032 95.5519 350.196 96.0949 350.196 96.6503C350.195 97.024 350.12 97.3937 349.975 97.7381C349.83 98.0825 349.618 98.3948 349.352 98.6568C349.085 98.9189 348.77 99.1256 348.423 99.2649C348.076 99.4042 347.705 99.4734 347.332 99.4685ZM347.332 94.7469C346.959 94.756 346.598 94.8745 346.293 95.0877C345.988 95.3009 345.752 95.5992 345.616 95.9455C345.479 96.2918 345.448 96.6707 345.525 97.0348C345.603 97.3989 345.786 97.7321 346.051 97.9927C346.317 98.2534 346.654 98.43 347.019 98.5005C347.385 98.571 347.763 98.5322 348.107 98.3889C348.45 98.2457 348.744 98.0044 348.951 97.6952C349.159 97.386 349.27 97.0226 349.272 96.6503C349.271 96.398 349.219 96.1484 349.121 95.9161C349.022 95.6838 348.879 95.4734 348.698 95.2972C348.518 95.1209 348.304 94.9823 348.069 94.8894C347.835 94.7965 347.584 94.7512 347.332 94.7561V94.7469Z" fill="#9AB3DA"/>
<path d="M351.841 66.3618C351.718 66.3618 351.601 66.3131 351.514 66.2265C351.427 66.1399 351.379 66.0224 351.379 65.8998V60.5406C351.379 60.4181 351.427 60.3006 351.514 60.2139C351.601 60.1273 351.718 60.0786 351.841 60.0786C351.963 60.0786 352.081 60.1273 352.167 60.2139C352.254 60.3006 352.303 60.4181 352.303 60.5406V65.8998C352.303 66.0224 352.254 66.1399 352.167 66.2265C352.081 66.3131 351.963 66.3618 351.841 66.3618Z" fill="#9AB3DA"/>
<path d="M357.422 68.4591H353.411C353.289 68.4591 353.171 68.4105 353.085 68.3238C352.998 68.2372 352.949 68.1197 352.949 67.9972C352.949 67.8746 352.998 67.7571 353.085 67.6705C353.171 67.5838 353.289 67.5352 353.411 67.5352H357.422C357.544 67.5352 357.662 67.5838 357.748 67.6705C357.835 67.7571 357.884 67.8746 357.884 67.9972C357.884 68.1197 357.835 68.2372 357.748 68.3238C357.662 68.4105 357.544 68.4591 357.422 68.4591Z" fill="#9AB3DA"/>
<path d="M351.841 75.916C351.718 75.916 351.601 75.8673 351.514 75.7807C351.427 75.6941 351.379 75.5765 351.379 75.454V70.0948C351.379 69.9723 351.427 69.8548 351.514 69.7681C351.601 69.6815 351.718 69.6328 351.841 69.6328C351.963 69.6328 352.081 69.6815 352.167 69.7681C352.254 69.8548 352.303 69.9723 352.303 70.0948V75.454C352.303 75.5765 352.254 75.6941 352.167 75.7807C352.081 75.8673 351.963 75.916 351.841 75.916Z" fill="#9AB3DA"/>
<path d="M350.27 68.4591H346.26C346.137 68.4591 346.02 68.4105 345.933 68.3238C345.847 68.2372 345.798 68.1197 345.798 67.9972C345.798 67.8746 345.847 67.7571 345.933 67.6705C346.02 67.5838 346.137 67.5352 346.26 67.5352H350.27C350.393 67.5352 350.51 67.5838 350.597 67.6705C350.683 67.7571 350.732 67.8746 350.732 67.9972C350.732 68.1197 350.683 68.2372 350.597 68.3238C350.51 68.4105 350.393 68.4591 350.27 68.4591Z" fill="#9AB3DA"/>
<path d="M336.179 135.301C336.056 135.301 335.939 135.253 335.852 135.166C335.765 135.079 335.717 134.962 335.717 134.839V129.48C335.717 129.358 335.765 129.24 335.852 129.153C335.939 129.067 336.056 129.018 336.179 129.018C336.301 129.018 336.419 129.067 336.506 129.153C336.592 129.24 336.641 129.358 336.641 129.48V134.839C336.641 134.962 336.592 135.079 336.506 135.166C336.419 135.253 336.301 135.301 336.179 135.301Z" fill="#9AB3DA"/>
<path d="M341.76 137.399H337.75C337.627 137.399 337.51 137.35 337.423 137.263C337.336 137.177 337.288 137.059 337.288 136.937C337.288 136.814 337.336 136.697 337.423 136.61C337.51 136.523 337.627 136.475 337.75 136.475H341.76C341.882 136.475 342 136.523 342.086 136.61C342.173 136.697 342.222 136.814 342.222 136.937C342.222 137.059 342.173 137.177 342.086 137.263C342 137.35 341.882 137.399 341.76 137.399Z" fill="#9AB3DA"/>
<path d="M336.179 144.855C336.056 144.855 335.939 144.807 335.852 144.72C335.765 144.634 335.717 144.516 335.717 144.393V139.034C335.717 138.912 335.765 138.794 335.852 138.708C335.939 138.621 336.056 138.572 336.179 138.572C336.301 138.572 336.419 138.621 336.506 138.708C336.592 138.794 336.641 138.912 336.641 139.034V144.393C336.641 144.516 336.592 144.634 336.506 144.72C336.419 144.807 336.301 144.855 336.179 144.855Z" fill="#9AB3DA"/>
<path d="M334.608 137.399H330.598C330.475 137.399 330.358 137.35 330.271 137.263C330.185 137.177 330.136 137.059 330.136 136.937C330.136 136.814 330.185 136.697 330.271 136.61C330.358 136.523 330.475 136.475 330.598 136.475H334.608C334.731 136.475 334.848 136.523 334.935 136.61C335.021 136.697 335.07 136.814 335.07 136.937C335.07 137.059 335.021 137.177 334.935 137.263C334.848 137.35 334.731 137.399 334.608 137.399Z" fill="#9AB3DA"/>
<path d="M269.586 91.9844C269.464 91.9844 269.346 91.9357 269.26 91.8491C269.173 91.7624 269.124 91.6449 269.124 91.5224V86.1632C269.124 86.0406 269.173 85.9231 269.26 85.8365C269.346 85.7498 269.464 85.7012 269.586 85.7012C269.709 85.7012 269.826 85.7498 269.913 85.8365C270 85.9231 270.048 86.0406 270.048 86.1632V91.5224C270.048 91.6449 270 91.7624 269.913 91.8491C269.826 91.9357 269.709 91.9844 269.586 91.9844Z" fill="#9AB3DA"/>
<path d="M275.167 94.0817H271.157C271.035 94.0817 270.917 94.033 270.83 93.9464C270.744 93.8598 270.695 93.7422 270.695 93.6197C270.695 93.4972 270.744 93.3797 270.83 93.293C270.917 93.2064 271.035 93.1577 271.157 93.1577H275.167C275.29 93.1577 275.407 93.2064 275.494 93.293C275.581 93.3797 275.629 93.4972 275.629 93.6197C275.629 93.7422 275.581 93.8598 275.494 93.9464C275.407 94.033 275.29 94.0817 275.167 94.0817Z" fill="#9AB3DA"/>
<path d="M269.586 101.539C269.464 101.539 269.346 101.49 269.26 101.403C269.173 101.317 269.124 101.199 269.124 101.077V95.7174C269.124 95.5948 269.173 95.4773 269.26 95.3907C269.346 95.3041 269.464 95.2554 269.586 95.2554C269.709 95.2554 269.826 95.3041 269.913 95.3907C270 95.4773 270.048 95.5948 270.048 95.7174V101.077C270.048 101.199 270 101.317 269.913 101.403C269.826 101.49 269.709 101.539 269.586 101.539Z" fill="#9AB3DA"/>
<path d="M268.015 94.0817H264.005C263.883 94.0817 263.765 94.033 263.679 93.9464C263.592 93.8598 263.543 93.7422 263.543 93.6197C263.543 93.4972 263.592 93.3797 263.679 93.293C263.765 93.2064 263.883 93.1577 264.005 93.1577H268.015C268.138 93.1577 268.255 93.2064 268.342 93.293C268.429 93.3797 268.477 93.4972 268.477 93.6197C268.477 93.7422 268.429 93.8598 268.342 93.9464C268.255 94.033 268.138 94.0817 268.015 94.0817Z" fill="#9AB3DA"/>
<path d="M332.677 62.7583H296.706C295.343 62.7583 294.239 63.8628 294.239 65.2254V113.236C294.239 114.599 295.343 115.703 296.706 115.703H332.677C334.039 115.703 335.144 114.599 335.144 113.236V65.2254C335.144 63.8628 334.039 62.7583 332.677 62.7583Z" fill="#9AB3DA"/>
<path d="M328.5 66.9346H292.529C291.167 66.9346 290.062 68.0391 290.062 69.4016V117.413C290.062 118.775 291.167 119.88 292.529 119.88H328.5C329.863 119.88 330.967 118.775 330.967 117.413V69.4016C330.967 68.0391 329.863 66.9346 328.5 66.9346Z" fill="#0D1D54"/>
<path d="M324.111 71.4067H288.14C286.778 71.4067 285.673 72.5113 285.673 73.8738V121.885C285.673 123.247 286.778 124.352 288.14 124.352H324.111C325.474 124.352 326.579 123.247 326.579 121.885V73.8738C326.579 72.5113 325.474 71.4067 324.111 71.4067Z" fill="#9AB3DA"/>
<path d="M321.358 82.8271H290.894C290.087 82.8271 289.434 83.4808 289.434 84.2871V84.6382C289.434 85.4445 290.087 86.0981 290.894 86.0981H321.358C322.164 86.0981 322.818 85.4445 322.818 84.6382V84.2871C322.818 83.4808 322.164 82.8271 321.358 82.8271Z" fill="#F8F8F8"/>
<path d="M321.358 91.7715H290.894C290.087 91.7715 289.434 92.4251 289.434 93.2314V93.5825C289.434 94.3888 290.087 95.0424 290.894 95.0424H321.358C322.164 95.0424 322.818 94.3888 322.818 93.5825V93.2314C322.818 92.4251 322.164 91.7715 321.358 91.7715Z" fill="#F8F8F8"/>
<path d="M321.358 100.725H290.894C290.087 100.725 289.434 101.379 289.434 102.185V102.536C289.434 103.342 290.087 103.996 290.894 103.996H321.358C322.164 103.996 322.818 103.342 322.818 102.536V102.185C322.818 101.379 322.164 100.725 321.358 100.725Z" fill="#F8F8F8"/>
<path d="M303.368 109.669H290.894C290.087 109.669 289.434 110.323 289.434 111.129V111.48C289.434 112.287 290.087 112.94 290.894 112.94H303.368C304.174 112.94 304.828 112.287 304.828 111.48V111.129C304.828 110.323 304.174 109.669 303.368 109.669Z" fill="#F8F8F8"/>
</svg>
